<svg t="1689807179023" class="icon" viewBox="0 0 1024 1024" version="1.1" xmlns="http://www.w3.org/2000/svg" p-id="1137"
     width="200" height="200">
    <path d="M850.34 173.64L596.4 826.52l-76.05-276.47-2.4-8.74a48.006 48.006 0 0 0-33.39-33.51l-8.73-2.43-278.64-77.68 653.15-254.05M879.7 97c-5.75 0-11.54 1.05-17.09 3.2L127.12 386.27c-18.97 7.36-31.08 26.06-30.06 46.38 0.98 20.33 14.89 37.74 34.51 43.18l300.9 83.89a48.006 48.006 0 0 1 33.39 33.51l82.25 299.05c5.42 19.71 22.76 33.64 42.87 34.65l2.69 0.08c19.33 0 37.03-12.11 44.04-30.12l286.08-735.5c6.8-17.46 2.62-37.3-10.65-50.57C904.11 101.8 892.01 97 879.7 97z"
          fill="black" p-id="1138"></path>
</svg>